# xmcd
#
# Track frame offsets:
#	150
#	16638
#	45795
#	63995
#	82935
#	102820
#	123353
#	138158
#	172858
#	188045
#
# Disc length: 2924 seconds
#
# Revision: 23
# Processed by: cddbd v1.5.2PL0 Copyright (c) Steve Scherf et al.
# Submitted via: Jack! The Knife 20 Magnifico
#
DISCID=650b6a0a
DTITLE=Scorpions - Taken By Force
DYEAR=1977
DGENRE=Hard Rock
TTITLE0=Steamrock Fever
TTITLE1=We'll Burn The Sky
TTITLE2=I've Got To Be Free
TTITLE3=The Riot Of Your Time
TTITLE4=The Sails Of Charon
TTITLE5=Your Light
TTITLE6=He's A Woman, She's A Man
TTITLE7=Born To Touch Your Feelings
TTITLE8=Suspender Love
TTITLE9=Polar Nights (Live)
EXTD=Dieter Dierks
EXTT0=Schenker, Meine
EXTT1=Schenker, Dannemann
EXTT2=Ulrich Roth
EXTT3=Schenker, Meine
EXTT4=Ulrich Roth
EXTT5=Ulrich Roth
EXTT6=Schenker, Meine, Rarebell
EXTT7=Schenker, Meine
EXTT8=Schenker, Meine
EXTT9=Ulrcih Roth
PLAYORDER=
